<?xml version="1.0" encoding="UTF-8" standalone="no"?>
<svg
   viewBox="0 0 17.481852 17.851858"
   version="1.1"
   id="svg1"
   width="17.481852"
   height="17.851858"
   xmlns="http://www.w3.org/2000/svg"
   xmlns:svg="http://www.w3.org/2000/svg">
  <defs
     id="defs1" />
  <ellipse
     style="fill:#000000;stroke-width:0.933285"
     id="path2"
     cx="8.7409258"
     cy="8.9211512"
     rx="8.7409258"
     ry="8.9211512" />
  <path
     d="m 10.725907,12.598247 v 5.015019 c -1.2821327,0.316988 -2.6176887,0.320356 -3.9999997,-0.0033 v -3.011719 h -1 c -1.6568542,0 -3,-1.343146 -3,-3 V 8.5982466 c 0,-0.552285 0.4477153,-1 1,-1 0.5522847,0 1,0.447715 1,1 v 3.0000004 c 0,0.56 0.45,1 1,1 h 1 V 2.5982466 c 0,-1.1045695 0.895431,-2.00000003 2,-2.00000003 1.104569,0 1.9999997,0.89543053 1.9999997,2.00000003 v 8.0000004 h 1 c 0.552285,0 1,-0.447715 1,-1.0000004 v -2 c 0,-0.552285 0.447715,-1 1,-1 0.552285,0 1,0.447715 1,1 v 2 c 0,1.6568544 -1.343146,3.0000004 -3,3.0000004 z"
     id="path1"
     style="fill:#ffffff" />
</svg>
